<mxfile host="app.diagrams.net" modified="2023-07-22T17:01:58.719Z" agent="Mozilla/5.0 (Windows NT 10.0; Win64; x64) AppleWebKit/537.36 (KHTML, like Gecko) Chrome/114.0.0.0 Safari/537.36 Edg/114.0.1823.82" version="21.6.5" etag="a8kwVV-VNNgtOJjFGuI0" type="github">
  <diagram name="Halaman-1" id="T8Imd4oGdBzQqa7fSYgq">
    <mxGraphModel>
      <root>
        <mxCell id="0" />
        <mxCell id="1" parent="0" />
      </root>
    </mxGraphModel>
  </diagram>
</mxfile>
